# File created by Blade
# Date/Time:  Wed Jan 21 16:27:40 2015
# Frame Rate: 120.000 fps
#------------------------------------------------------
:FULLY-SPECIFIED
:DEGREES
391
root 11.381522 29.724029 -23.062824 -191.198234 57.708359 -195.055275
Spine 20.266346 -7.448466 -11.977104
Head 18.639287 -19.042382 9.658747
LeftShoulder -2.691719 -21.824601 -4.553546
LeftArm -6.279014 16.949066 -69.409080
LeftForeArm -6.566726 0.000000 4.503438
LeftHand -0.883759 -0.000000 5.180790
LeftHandThumb1 -26.253704 0.000000 33.147579
RightShoulder -10.824332 -20.201959 10.109169
RightArm 7.289700 -12.287325 71.985786
RightForeArm -28.580191 -0.000000 34.692676
RightHand -2.351465 -0.000000 2.286656
RightHandThumb1 -24.326973 -0.000000 -32.862282
LeftUpLeg 13.062724 15.284362 -1.421043
LeftLeg 33.745587 -0.000000 -0.000000
LeftFoot -54.100564 16.936055 -26.101688
LeftToeBase 18.286441 -0.000000 -0.000000
RightUpLeg -44.234866 -27.404879 6.614712
RightLeg -0.768003 -0.000000 0.000000
RightFoot 27.540344 -28.780648 -11.654590
RightToeBase 11.904175 -0.000000 -0.000000
392
root 11.503192 29.653983 -23.051243 -191.072760 57.732358 -195.058398
Spine 20.536872 -7.304434 -12.131123
Head 18.126223 -19.084234 9.996039
LeftShoulder -2.512312 -21.912433 -4.547422
LeftArm -6.043769 16.833217 -69.434045
LeftForeArm -6.395097 -0.000000 4.616359
LeftHand -0.769208 -0.000000 5.477563
LeftHandThumb1 -26.253704 0.000000 33.147579
RightShoulder -10.700714 -19.944646 10.060733
RightArm 7.542154 -12.046380 71.871531
RightForeArm -28.633678 -0.000000 35.370485
RightHand -2.357107 -0.000000 2.298182
RightHandThumb1 -24.326973 -0.000000 -32.862282
LeftUpLeg 12.970455 15.146876 -1.313061
LeftLeg 34.092214 -0.000000 -0.000000
LeftFoot -54.164956 16.802936 -26.235550
LeftToeBase 18.203090 -0.000000 -0.000000
RightUpLeg -44.355603 -27.141946 6.561003
RightLeg -0.894494 -0.000000 0.000000
RightFoot 27.459631 -28.820074 -11.685612
RightToeBase 11.421142 -0.000000 -0.000000
393
root 11.627088 29.581341 -23.036845 -190.920683 57.762175 -195.030517
Spine 20.824956 -7.170123 -12.254417
Head 17.574825 -19.120872 10.286472
LeftShoulder -2.324941 -22.126026 -4.519882
LeftArm -5.898628 16.913085 -69.534851
LeftForeArm -6.410791 -0.000000 4.643231
LeftHand -0.605411 -0.000000 6.011089
LeftHandThumb1 -26.253704 0.000000 33.147579
RightShoulder -10.505978 -19.591810 9.948585
RightArm 7.657522 -11.862518 71.837615
RightForeArm -28.811605 -0.000000 36.165812
RightHand -2.708264 -0.000000 2.128433
RightHandThumb1 -24.326973 -0.000000 -32.862282
LeftUpLeg 12.899632 15.087375 -1.134183
LeftLeg 34.420627 -0.000000 -0.000000
LeftFoot -54.234467 16.620858 -26.286409
LeftToeBase 18.198714 -0.000000 -0.000000
RightUpLeg -44.518105 -26.923432 6.583313
RightLeg -0.982003 -0.000000 0.000000
RightFoot 27.272051 -28.834639 -11.741941
RightToeBase 11.407098 -0.000000 -0.000000
394
root 11.756665 29.508351 -23.022384 -190.780224 57.809389 -194.962931
Spine 21.177823 -6.985970 -12.354834
Head 17.022729 -19.208922 10.574315
LeftShoulder -2.111449 -22.316108 -4.491830
LeftArm -5.707058 16.954860 -69.641444
LeftForeArm -6.486344 -0.000000 4.776554
LeftHand -0.782193 -0.000000 6.374566
LeftHandThumb1 -26.253704 0.000000 33.147579
RightShoulder -10.331396 -19.296328 9.843314
RightArm 7.877810 -11.724789 71.762730
RightForeArm -29.225095 0.000000 36.848358
RightHand -2.874328 0.000000 1.898022
RightHandThumb1 -24.326973 -0.000000 -32.862282
LeftUpLeg 12.922763 15.068043 -0.897300
LeftLeg 34.680336 -0.000000 -0.000000
LeftFoot -54.306790 16.494239 -26.304071
LeftToeBase 18.202347 -0.000000 -0.000000
RightUpLeg -44.657220 -26.814487 6.711881
RightLeg -1.133178 -0.000000 0.000000
RightFoot 27.156713 -28.722988 -11.843380
RightToeBase 12.316445 -0.000000 -0.000000
